<?xml version="1.0" standalone="no"?>
<!DOCTYPE svg PUBLIC "-//W3C//DTD SVG 20010904//EN"
 "http://www.w3.org/TR/2001/REC-SVG-20010904/DTD/svg10.dtd">
<svg version="1.0" xmlns="http://www.w3.org/2000/svg"
 width="150.000000pt" height="150.000000pt" viewBox="0 0 150.000000 150.000000"
 preserveAspectRatio="xMidYMid meet">

<g transform="translate(0.000000,150.000000) scale(0.100000,-0.100000)"
fill="#000000" stroke="none">
<path d="M1074 1428 c14 -145 -34 -280 -136 -382 -72 -72 -133 -103 -263 -136
-118 -31 -179 -58 -240 -109 l-50 -41 -3 315 -2 315 -35 0 -35 0 0 -415 0
-415 35 0 c32 0 35 3 45 41 21 79 80 149 155 188 22 11 90 34 150 52 181 52
265 105 351 221 73 100 112 246 98 370 l-7 58 -35 0 -35 0 7 -62z"/>
<path d="M675 1310 c-25 -27 -22 -80 6 -102 68 -56 154 27 103 100 -20 29 -83
31 -109 2z"/>
<path d="M850 775 c-323 -90 -620 -428 -620 -706 l0 -51 32 7 c18 4 33 8 34 9
1 0 6 37 12 80 46 338 501 684 775 590 63 -21 115 -82 142 -165 19 -61 22 -64
54 -67 l34 -3 -7 54 c-12 110 -64 185 -161 234 -64 33 -209 42 -295 18z"/>
</g>
</svg>
